<?xml version="1.0" encoding="UTF-8"?>
<svg width="70px" height="62px" viewBox="0 0 70 62" version="1.1" xmlns="http://www.w3.org/2000/svg" xmlns:xlink="http://www.w3.org/1999/xlink">
    <!-- Generator: Sketch 63.1 (92452) - https://sketch.com -->
    <title>building</title>
    <desc>Created with Sketch.</desc>
    <g id="UI-Mockups" stroke="none" stroke-width="1" fill="none" fill-rule="evenodd">
        <g id="Forecast-and-Deals-V5.1-EDIT-+-Hover-States-Copy" transform="translate(-42.000000, -161.000000)" stroke="#199E54">
            <g id="building" transform="translate(45.000000, 164.000000)">
                <path d="M36,22 L59,22 C61.7614237,22 64,24.2385763 64,27 L64,56 L64,56 L31,56 L31,27 C31,24.2385763 33.2385763,22 36,22 Z" id="Rectangle" stroke-width="6" fill="#FFFFFF"></path>
                <path d="M5,0 L40,0 C42.7614237,-5.07265313e-16 45,2.23857625 45,5 L45,56 L45,56 L0,56 L0,5 C-3.38176876e-16,2.23857625 2.23857625,5.07265313e-16 5,0 Z" id="Rectangle" stroke-width="6" fill="#FFFFFF"></path>
                <rect id="Rectangle" fill="#199E54" x="48" y="33" width="5" height="5"></rect>
                <rect id="Rectangle" fill="#199E54" x="48" y="43" width="5" height="5"></rect>
                <rect id="Rectangle" fill="#199E54" x="12" y="10" width="5" height="5"></rect>
                <rect id="Rectangle" fill="#199E54" x="12" y="20" width="5" height="5"></rect>
                <rect id="Rectangle" fill="#199E54" x="27" y="10" width="5" height="5"></rect>
                <rect id="Rectangle" fill="#199E54" x="27" y="20" width="5" height="5"></rect>
                <rect id="Rectangle" fill="#199E54" x="27" y="30" width="5" height="5"></rect>
                <rect id="Rectangle" fill="#199E54" x="27" y="40" width="5" height="5"></rect>
                <rect id="Rectangle" fill="#199E54" x="12" y="30" width="5" height="5"></rect>
                <rect id="Rectangle" fill="#199E54" x="12" y="40" width="5" height="5"></rect>
            </g>
        </g>
    </g>
</svg>