<svg xmlns="http://www.w3.org/2000/svg" height="40" viewBox="0 -960 960 960" width="40"><path d="M480-132q-72 0-135.5-27.5T233.667-234q-47.334-47-74.5-110.5Q132-408 132-480.667q0-72 27.167-135.5 27.166-63.5 74.5-110.5 47.333-47 110.833-74.166Q408-828 480-828t135.5 27.167q63.5 27.166 110.833 74.166 47.334 47 74.5 110.5Q828-552.667 828-480.667 828-408 800.833-344.5q-27.166 63.5-74.5 110.5Q679-187 615.5-159.5T480-132Zm0-22.333q40-47.334 64.667-94.334Q569.333-295.667 585-356H375q17 64.333 41.333 111 24.334 46.667 63.667 90.667Zm-31-2.334q-32.333-33.666-59.333-88.166T350-356H179.333q38 86 108.334 137.667Q358-166.667 449-156.667Zm62.667 0q87.666-8.666 159.333-61.666T780.667-356H610q-17.667 58.333-44.333 112.167-26.667 53.833-54 87.166ZM171.667-380h173.666q-5-27.333-7-52.5t-2-48.167q0-23 2-47.833t7-51.5H171.667Q164-558.333 160-532.333t-4 51.666q0 26.334 4 52.334 4 26 11.667 48.333Zm197.666 0h221.334q5-28 7-51.833 2-23.834 2-48.834 0-24.333-2-47.833t-7-51.5H369.333q-5 28-7 51.5t-2 47.833q0 25 2 48.834 2 23.833 7 51.833Zm245.334 0h173.666Q796-402.333 800-428.333t4-52.334q0-25.666-4-51.666-4-26-11.667-47.667h-173q4.334 28.667 6.334 53.167t2 46.166q0 23-2 47.834-2 24.833-7 52.833ZM610-604h170.667q-38.334-87.333-107.5-138.667Q604-794 511-804.333q32.333 38.666 58.333 91.333T610-604Zm-235 0h210.667q-17-61.333-42.834-111.167Q517-765 480-805.667 443.667-767 418.5-718.5T375-604Zm-195.667 0H350q14.667-56.333 40.333-108.667 25.667-52.333 58-91.666-93.333 11-162 62.166Q217.667-691 179.333-604Z"/></svg>