<?xml version="1.0" encoding="UTF-8"?>
<svg width="20px" height="20px" id="sms" viewBox="0 0 18 17" version="1.1" xmlns="http://www.w3.org/2000/svg"
    xmlns:xlink="http://www.w3.org/1999/xlink">
    <!-- Generator: Sketch 63.1 (92452) - https://sketch.com -->
    <title>Shape</title>
    <desc>Created with Sketch.</desc>
    <g id="UI-Mockups" stroke="none" stroke-width="1" fill="none" fill-rule="evenodd">
        <g id="V4.1-Email" transform="translate(-206.000000, -504.000000)" fill="#484A6E">
            <g id="Group-18" transform="translate(34.000000, 92.000000)">
                <g id="Group-16">
                    <g id="Components-/-Button-/-Icon-/-S-/-Secondary" transform="translate(172.000000, 412.000000)">
                        <g id="Icon">
                            <path
                                d="M4.86086979,14.6504894 L15.7182878,14.6504894 C16.5679967,14.6504894 17.2554884,13.843846 17.2554884,12.8579486 L17.2632131,2.10270409 C17.2632131,1.11680667 16.5679967,0.310163328 15.7182878,0.310163328 L3.35888565,0.310163328 C2.50917675,0.310163328 1.81396038,1.1345369 1.81396038,2.10270409 L1.81396038,11.3645787 C1.81396038,12.3504762 -0.361899095,15.2063792 0.441109812,16.0723765 C1.24411872,16.9383739 4.86086979,14.6504894 4.86086979,14.6504894 Z M5.76321306,8.31016333 C6.59164019,8.31016333 7.26321306,7.63859045 7.26321306,6.81016333 C7.26321306,5.9817362 6.59164019,5.31016333 5.76321306,5.31016333 C4.93478594,5.31016333 4.26321306,5.9817362 4.26321306,6.81016333 C4.26321306,7.63859045 4.93478594,8.31016333 5.76321306,8.31016333 Z M9.76321306,8.31016333 C10.5916402,8.31016333 11.2632131,7.63859045 11.2632131,6.81016333 C11.2632131,5.9817362 10.5916402,5.31016333 9.76321306,5.31016333 C8.93478594,5.31016333 8.26321306,5.9817362 8.26321306,6.81016333 C8.26321306,7.63859045 8.93478594,8.31016333 9.76321306,8.31016333 Z M13.7632131,8.31016333 C14.5916402,8.31016333 15.2632131,7.63859045 15.2632131,6.81016333 C15.2632131,5.9817362 14.5916402,5.31016333 13.7632131,5.31016333 C12.9347859,5.31016333 12.2632131,5.9817362 12.2632131,6.81016333 C12.2632131,7.63859045 12.9347859,8.31016333 13.7632131,8.31016333 Z"
                                id="Shape"></path>
                        </g>
                    </g>
                </g>
            </g>
        </g>
    </g>
</svg>