<?xml version="1.0" encoding="UTF-8"?>
<svg width="8px" height="14px" viewBox="0 0 8 14" version="1.1" xmlns="http://www.w3.org/2000/svg" xmlns:xlink="http://www.w3.org/1999/xlink">
    <!-- Generator: Sketch 63.1 (92452) - https://sketch.com -->
    <title>Next</title>
    <desc>Created with Sketch.</desc>
    <g id="Symbols" stroke="none" stroke-width="1" fill="none" fill-rule="evenodd">
        <g id="Components-/-Pagination-/-L-/-Arrows-Only" transform="translate(-57.000000, -13.000000)">
            <g id="Next" transform="translate(40.000000, 0.000000)">
                <g id="Icon-/-icon-arrow-right" transform="translate(8.000000, 8.000000)">
                    <polygon id="Shape" points="0 0 24 0 24 24 0 24"></polygon>
                    <path d="M15.9653985,19 C15.9048959,18.9958498 15.8894953,18.9963498 15.8295927,18.9860494 C15.6948869,18.9627984 15.5653314,18.9117462 15.4510265,18.836743 C15.393224,18.7988414 15.3427718,18.7547395 15.2923697,18.7076875 L9.29211252,12.7074303 C9.25071074,12.6630784 9.23916025,12.652978 9.20240867,12.6045259 C9.16115691,12.5501236 9.12550538,12.4914711 9.09615412,12.4297684 C8.96794863,12.1602069 8.96794863,11.8403432 9.09615412,11.5707816 C9.12550538,11.509079 9.16115691,11.4504264 9.20240867,11.3960241 C9.23916025,11.347622 9.25071074,11.3374716 9.29211252,11.2931697 L15.2923697,5.29291255 C15.3367216,5.25151078 15.346872,5.23991028 15.3952741,5.20320871 C15.5223795,5.10675458 15.672386,5.04165179 15.8295927,5.01450062 C15.9418475,4.99519979 16.0572025,4.99519979 16.1694573,5.01450062 C16.2592111,5.03000129 16.3467649,5.05780248 16.4290184,5.09690415 C16.7414318,5.24546052 16.9589411,5.55362373 16.9943426,5.89773847 C17.0082932,6.0337443 16.9940426,6.17225024 16.9526908,6.30255582 C16.9182394,6.41111048 16.8651871,6.51356487 16.7963841,6.60426875 C16.7596326,6.65272083 16.7480821,6.66282126 16.7066803,6.70717316 L11.4135534,12.0003 L16.7066803,17.2934269 L16.7532823,17.343329 C16.7915339,17.390331 16.8024344,17.4012815 16.8357358,17.4520837 C16.8981885,17.5472877 16.9441905,17.6531423 16.9711416,17.763747 C16.9926925,17.8522508 17.0020929,17.9436547 16.9989928,18.0346586 C16.9871923,18.3804234 16.7911839,18.7026873 16.489671,18.8722445 C16.3904167,18.9280469 16.2816621,18.9666986 16.1694573,18.9860494 C16.1095547,18.9963498 16.094154,18.9958498 16.0336514,19 L15.9653985,19 L15.9653985,19 Z" id="Shape" fill="#484A6E" fill-rule="evenodd" transform="translate(12.999771, 12.000000) scale(-1, 1) translate(-12.999771, -12.000000) "></path>
                </g>
            </g>
        </g>
    </g>
</svg>