<?xml version="1.0"?>
<svg xmlns="http://www.w3.org/2000/svg" width="145" height="32" viewBox="0 0 145 32" fill="none">
<g clip-path="url(#clip0)">
<path d="M78.799 19.0429L76.3315 17.5778C73.5556 16.0356 72.0906 15.0332 72.0906 13.1826C72.0906 11.7947 73.3243 10.7151 74.9436 10.7151C78.1822 10.7151 79.7243 13.2597 80.1099 16.4212H80.6496L81.8834 9.55852C80.8038 9.09587 79.1074 8.78743 77.4111 8.78743C71.4737 8.78743 68.5436 11.9489 68.5436 15.573C68.5436 18.6573 71.0882 20.2766 73.093 21.3561L76.4858 23.2838C78.7219 24.4404 79.8014 25.5971 79.8014 27.2935C79.8014 28.6043 78.799 30.1465 76.4858 30.1465C73.3243 30.1465 70.7797 27.2935 69.7773 23.2067H69.3147L68.0038 24.9802C66.3075 26.985 64.3797 28.6043 61.2954 28.6043C56.5147 28.6043 54.2785 25.0573 54.2785 20.2766H65.999V17.1151C65.999 12.72 63.84 8.86454 58.5966 8.86454C52.4279 8.86454 49.4207 14.4163 49.4207 20.6621C49.4207 23.438 50.1147 25.7513 51.2713 27.6019C50.5002 28.4501 49.4207 29.3754 47.9556 29.3754C46.4135 29.3754 45.6424 27.9103 45.6424 25.6742V-0.00292969C45.4882 0.0741788 45.334 0.151287 45.1797 0.228396C43.4062 1.07659 41.787 1.69346 40.0135 2.15611C40.0906 2.31032 40.1677 2.46454 40.1677 2.61876C40.9388 4.62358 41.0159 7.01394 41.0159 9.55852V24.7489C41.0159 25.9055 41.1701 26.9079 41.4014 27.7561C40.7846 28.6043 39.9364 29.5296 38.7797 29.5296C37.3147 29.5296 36.1581 28.373 36.1581 26.0597V17.1923C36.1581 13.3368 35.387 8.78743 28.987 8.78743C23.3581 8.78743 21.0448 12.3344 21.0448 15.8043L25.2858 17.4236C25.2858 17.4236 24.746 10.3296 28.6014 10.3296C31.6858 10.3296 31.6087 13.7995 31.6087 16.8067V17.8862C31.6087 18.5802 29.9894 19.5055 26.905 20.6621C24.2063 21.7416 20.1195 23.1296 20.1195 27.0621C20.1195 29.9151 22.2014 31.9971 25.2858 31.9971C27.7532 31.9971 30.1436 30.6091 31.6858 28.4501C31.7629 29.5296 33.4593 31.9971 36.0809 31.9971C38.7797 31.9971 40.6303 30.3778 41.787 28.8356C42.7894 30.9947 44.5629 31.9971 46.6448 31.9971C48.8809 31.9971 50.6544 30.0694 51.8111 28.373C53.5846 30.6091 56.1291 31.9971 59.0593 31.9971C62.6834 31.9971 65.2279 29.6067 66.693 27.2935C67.6183 28.5272 70.5484 31.9971 75.1749 31.9971C79.0303 31.9971 82.7315 29.4525 82.7315 24.9802C82.8087 21.6645 80.5725 20.0453 78.799 19.0429ZM31.6858 27.3706C30.6834 28.1417 29.4496 28.8356 28.1388 28.8356C25.9026 28.8356 24.8231 27.2164 24.8231 25.2886C24.8231 22.7441 26.134 21.5874 30.1436 21.5874C31.5316 21.5874 31.6858 21.7416 31.6858 22.5898V27.3706ZM54.2785 18.426C54.2785 13.1826 55.5123 10.4067 57.9797 10.4067C59.9846 10.4067 61.3725 12.4115 61.3725 16.9609C61.3725 18.7344 61.1412 18.9657 59.7532 18.9657H54.3556L54.2785 18.426Z" fill="white"/>
<path d="M90.7506 24.7518V0C88.8229 0.925301 87.0494 1.61928 85.1217 2.15904C86.047 4.16386 86.1241 6.78554 86.1241 9.48434V24.6747C86.1241 27.0651 85.9699 28.9157 85.0446 31.3831H92.3699C92.447 31.3831 90.7506 29.2241 90.7506 24.7518Z" fill="white"/>
<path d="M102.934 8.79346C97.4591 8.79346 93.7579 13.42 93.7579 20.5139C93.7579 27.1453 97.1506 32.0031 102.548 32.0031C108.023 32.0031 111.724 27.4537 111.724 20.4368C111.724 13.8055 108.331 8.79346 102.934 8.79346ZM103.088 30.2296C100.081 30.2296 98.7699 24.832 98.7699 19.0489C98.7699 13.5742 99.9265 10.4127 102.317 10.4127C105.401 10.4127 106.635 16.0417 106.635 21.8248C106.635 27.4537 105.401 30.2296 103.088 30.2296Z" fill="white"/>
<path d="M131.541 10.4111H137.864V9.17733H131.541V3.00865C129.999 4.01106 128.38 4.78215 126.683 5.39901C126.837 7.01829 126.837 8.0207 126.914 9.17733H119.281C118.664 7.32673 118.278 5.78456 118.278 4.55082C118.278 3.00865 118.818 2.16046 120.052 2.16046C121.286 2.16046 122.519 3.70263 123.599 7.55805H124.139L125.449 0.618292C125.449 0.618292 124.37 -0.0756836 122.828 -0.0756836C117.199 -0.0756836 114.963 4.24239 114.886 9.10022H112.341V10.334H114.886V10.5653V24.1364C114.886 26.5267 114.808 28.7629 113.806 31.3846H120.514C119.512 28.84 119.435 26.5267 119.435 24.1364V10.6424V10.4111H126.914V10.6424V25.9099C126.914 29.9195 128.534 32.0014 131.233 32.0014C134.394 32.0014 136.63 29.3797 136.63 26.9123C135.551 27.6833 134.702 28.2231 133.777 28.2231C131.541 28.2231 131.541 25.7556 131.541 24.7532V10.6424V10.4111Z" fill="white"/>
<path d="M5.93152 8.01912C5.93152 6.0143 7.85923 4.39502 10.3267 4.39502C13.4881 4.39502 15.4159 5.86008 16.4954 13.4938H17.1894L18.1918 3.08418C11.0207 0.616709 2.23032 3.2384 2.0761 10.7179C2.0761 18.8143 14.9532 18.8143 14.9532 26.2167C14.9532 28.3757 13.0255 29.8408 10.8665 29.8408C5.16044 29.8408 3.84959 25.0601 3.54116 20.048H2.84718L0.996582 29.4553C0.996582 29.4553 5.23755 31.9227 9.78694 31.9227C15.2616 31.8456 18.8857 27.836 19.04 23.595C19.04 15.4986 5.93152 13.8023 5.93152 8.01912Z" fill="white"/>
<path d="M139.021 29.0722C139.021 27.5301 140.255 26.2192 141.874 26.2192C143.57 26.2192 144.804 27.5301 144.804 29.0722C144.804 30.6144 143.57 31.9253 141.951 31.9253C140.177 32.0024 139.021 30.6144 139.021 29.0722Z" fill="#B4D625"/>
</g>
<defs>
<clipPath id="clip0">
<rect width="143.807" height="32" fill="white" transform="translate(0.996582)"/>
</clipPath>
</defs>
</svg>
