<?xml version="1.0" encoding="utf-8"?>
<!-- Generator: Adobe Illustrator 25.1.0, SVG Export Plug-In . SVG Version: 6.00 Build 0)  -->
<svg version="1.1" id="Layer_1" xmlns="http://www.w3.org/2000/svg" xmlns:xlink="http://www.w3.org/1999/xlink" x="0px" y="0px"
	 viewBox="0 0 500 150.3" style="enable-background:new 0 0 500 150.3;" xml:space="preserve">
<style type="text/css">
	.st0{fill:#E9A823;}
	.st1{fill:#3FB991;}
	.st2{fill:#E11765;}
	.st3{fill:#472A49;}
	.st4{fill:#CD2027;}
	.st5{fill:#71CBDC;}
	.st6{fill:#1D947E;}
	.st7{fill:#66873A;}
	.st8{fill:#3C444C;}
</style>
<g>
	<g>
		<g>
			<path class="st0" d="M100.6,16.8c-2-6.2-8.7-9.7-15-7.6c-6.2,2-9.7,8.7-7.6,15l30.7,94.5c2.1,5.8,8.4,9.1,14.4,7.4
				c6.3-1.8,10.1-8.5,8.1-14.7C131.2,111.1,100.6,16.8,100.6,16.8z"/>
			<path class="st1" d="M53,32.3c-2-6.2-8.7-9.7-15-7.6s-9.7,8.7-7.6,15l30.7,94.5c2.1,5.8,8.4,9.1,14.4,7.4
				c6.3-1.8,10.1-8.5,8.1-14.7C83.6,126.5,53,32.3,53,32.3z"/>
			<path class="st2" d="M139.2,95.1c6.2-2,9.7-8.7,7.6-15c-2-6.2-8.7-9.7-15-7.6l-94.5,30.7c-5.8,2.1-9.1,8.4-7.4,14.4
				c1.8,6.3,8.5,10.1,14.7,8.1C45,125.7,139.2,95.1,139.2,95.1z"/>
			<path class="st3" d="M57.1,121.8c6.2-2,14.1-4.6,22.6-7.3c-2-6.1-4.6-14.1-7.3-22.6l-22.6,7.3L57.1,121.8z"/>
			<path class="st4" d="M104.7,106.3c8.5-2.8,16.5-5.4,22.6-7.3c-2-6.2-4.6-14.1-7.3-22.6l-22.6,7.3L104.7,106.3z"/>
			<path class="st5" d="M123.8,47.5c6.2-2,9.7-8.7,7.6-15s-8.7-9.7-15-7.6L21.9,55.6c-5.8,2.1-9.1,8.4-7.4,14.4
				c1.8,6.3,8.5,10.1,14.7,8.1C29.5,78.1,123.8,47.5,123.8,47.5z"/>
			<path class="st6" d="M41.6,74.2c6.2-2,14.1-4.6,22.6-7.3c-2.8-8.5-5.4-16.5-7.3-22.6l-22.6,7.3L41.6,74.2z"/>
			<path class="st7" d="M89.2,58.7c8.5-2.8,16.5-5.4,22.6-7.3c-2.8-8.5-5.4-16.5-7.3-22.6l-22.6,7.3L89.2,58.7z"/>
		</g>
	</g>
	<path class="st8" d="M235.1,41.7c4.2,1.8,4.5,3.2,1.2,9.4c-3.3,6.4-4.2,6.8-8.3,5.1c-5.2-2.2-11.8-3.9-16-3.9
		c-7,0-11.6,2.5-11.6,6.3c0,12.5,40,5.8,40,32.5c0,13.4-11.5,22.4-28.9,22.4c-9.1,0-20.4-3-28.1-7c-3.9-2-4.1-3.1-0.8-9.5
		c2.9-5.6,3.8-6.2,8-4.5c6.6,2.9,15,5.1,20.6,5.1c6.4,0,10.6-2.6,10.6-6.4c0-12.2-40.7-6.4-40.7-32.3c0-13.8,11.5-22.9,28.6-22.9
		C217.8,36.1,228,38.5,235.1,41.7z"/>
	<path class="st8" d="M267.4,9.9v99.7c0,1.5-1.6,3.1-3.9,3.1H253c-2.3,0-3.9-1.6-3.9-3.1V9.9c0-4.9,1.4-5.4,9.1-5.4
		C267.1,4.5,267.4,5.2,267.4,9.9z"/>
	<path class="st8" d="M341.9,66v42.9c0,2.3-1.6,3.9-3.9,3.9h-10.3c-2.4,0-4-1.7-3.9-4.1l0.2-4.6c-5.6,6.2-13.7,9.5-21.7,9.5
		c-15.7,0-26.1-9-26.1-22.6c0-14.4,11.9-24,29.6-24.1c6.8,0,12.9,1.2,17.9,3.3v-4.9c0-7.9-6.2-12.6-16.8-12.6c-4.9,0-11,2-15.9,4.8
		c-3.7,2.1-4.6,2-8.7-4c-4-6-3.8-7.1,0-9.6c7.3-4.7,17.2-7.7,26.3-7.7C329.1,36.1,341.9,47.2,341.9,66z M293.6,90.9
		c0,5.1,4.3,8.5,10.9,8.5c7.9,0,15-3.8,19.2-10.3v-6.7c-4.2-1.6-9.3-2.5-13.8-2.5C300.1,79.9,293.6,84.6,293.6,90.9z"/>
	<path class="st8" d="M413,41.9c3.8,2.2,4,3.4-0.2,9.9c-4,6.1-4.6,6.5-8.8,4.3c-3.2-1.7-8.3-3.1-12.5-3.1
		c-13.1,0-21.9,8.7-21.9,21.7c0,13.6,8.7,22.7,21.9,22.7c4.6,0,10.3-1.7,14-3.8c3.8-2.2,4.6-2.1,8.7,3.8c3.6,5.5,3.6,6.8,0.3,9
		c-5.8,4-15.1,7.1-23.2,7.1c-24.3,0-40.6-15.6-40.6-38.9c0-23.2,16.3-38.6,40.7-38.6C398.8,36.1,407.5,38.6,413,41.9z"/>
	<path class="st8" d="M492.3,103.3c3,3.9,1.8,5.2-5.8,8c-7.7,2.8-8.8,2.7-11.5-0.9l-21.7-29l-9.7,9.4v18.8c0,1.5-1.6,3.1-3.9,3.1
		h-10.5c-2.3,0-3.9-1.6-3.9-3.1V9.9c0-4.9,1.4-5.4,9.1-5.4c8.8,0,9.1,0.6,9.1,5.4v56.7l29.8-28.6c3.3-3.1,5.1-2.9,10.9,1
		c6.5,4.2,6.9,5.3,3.8,8.4L465.9,69L492.3,103.3z"/>
</g>
</svg>
