<svg xmlns="http://www.w3.org/2000/svg">
	<g>
		<svg xmlns="http://www.w3.org/2000/svg" height="24" viewBox="0 0 24 24" width="24" id="remove">
			<path
				d="M19 6.41L17.59 5 12 10.59 6.41 5 5 6.41 10.59 12 5 17.59 6.41 19 12 13.41 17.59 19 19 17.59 13.41 12z" />
			<path d="M0 0h24v24H0z" fill="none" /></svg>

	</g>
	<g>
		<svg xmlns="http://www.w3.org/2000/svg" id="star" width="24" height="24" viewBox="0 0 24 24">
			<path
				d="M12 .587l3.668 7.568 8.332 1.151-6.064 5.828 1.48 8.279-7.416-3.967-7.417 3.967 1.481-8.279-6.064-5.828 8.332-1.151z" />
		</svg>

	</g>
	<g>
		<svg xmlns="http://www.w3.org/2000/svg" id="email" height="24" viewBox="0 0 24 24" width="24">
			<path
				d="M20 4H4c-1.1 0-1.99.9-1.99 2L2 18c0 1.1.9 2 2 2h16c1.1 0 2-.9 2-2V6c0-1.1-.9-2-2-2zm0 4l-8 5-8-5V6l8 5 8-5v2z" />
			<path d="M0 0h24v24H0z" fill="none" />
		</svg>
	</g>

	<svg version="1.1" id="clock" xmlns="http://www.w3.org/2000/svg" xmlns:xlink="http://www.w3.org/1999/xlink" x="0px"
		y="0px" viewBox="0 0 480.137 480.137" style="enable-background:new 0 0 480.137 480.137;" xml:space="preserve">
		<g>
			<g>
				<g>
					<path d="M459.063,21.086c-28.185-27.986-73.671-27.986-101.856,0c-0.75,0.753-1.343,1.648-1.744,2.632
				c-0.35,0.879-0.537,1.814-0.552,2.76c-0.023,0.09-0.042,0.18-0.056,0.272c0.001,1.046,0.208,2.082,0.608,3.048
				c0.395,0.981,0.986,1.871,1.736,2.616l39.624,39.624l-15.32,15.312c-38.382-35.478-88.725-55.188-140.992-55.2
				c-0.136-0.04-0.24-0.112-0.376-0.112s-0.24,0.072-0.376,0.072C187.485,32.132,137.14,51.86,98.767,87.358l-15.32-15.32
				l39.624-39.624c0.75-0.745,1.341-1.635,1.736-2.616c0.4-0.966,0.607-2.002,0.608-3.048c0-0.096-0.048-0.176-0.056-0.272
				c0.007-1.846-0.711-3.622-2-4.944c-0.12-0.136-0.16-0.304-0.288-0.432C94.942-7.031,49.332-7.035,21.199,21.094
				C-6.935,49.223-6.938,94.833,21.191,122.966c0.112,0.12,0.272,0.152,0.392,0.264c0.652,0.614,1.404,1.112,2.224,1.472
				c0.873,0.343,1.799,0.53,2.736,0.552c0.096,0,0.192,0.056,0.296,0.056c1.042-0.004,2.074-0.208,3.04-0.6
				c0.979-0.403,1.868-0.995,2.616-1.744l39.64-39.616l15.32,15.32C9.447,182.998,14.57,314.596,98.897,392.604
				c7.209,6.668,14.88,12.818,22.958,18.402l-55.384,55.376c-3.178,3.069-3.266,8.134-0.196,11.312
				c3.069,3.178,8.134,3.266,11.312,0.196c0.067-0.064,0.132-0.13,0.196-0.196l57.896-57.896
				c64.542,37.654,144.354,37.654,208.896,0l57.896,57.896c3.178,3.07,8.242,2.982,11.312-0.196c2.995-3.1,2.995-8.016,0-11.116
				l-55.384-55.376c94.495-65.369,118.106-194.964,52.737-289.459c-5.567-8.047-11.695-15.692-18.337-22.877l15.336-15.32
				l39.624,39.624c0.748,0.749,1.637,1.341,2.616,1.744c0.966,0.392,1.998,0.596,3.04,0.6c0.104,0,0.2-0.056,0.296-0.056
				c0.937-0.022,1.863-0.209,2.736-0.552c0.82-0.36,1.572-0.858,2.224-1.472c0.12-0.112,0.28-0.144,0.392-0.264
				C487.043,94.79,487.022,49.291,459.063,21.086z M27.271,105.59C8.823,80.739,14.013,45.639,38.864,27.19
				c19.835-14.724,46.972-14.724,66.807,0L27.271,105.59z M431.791,232.038h-39.656c-4.418,0-8,3.582-8,8s3.582,8,8,8h39.8
				c-4.277,99.685-84.115,179.523-183.8,183.8v-39.8c0-4.418-3.582-8-8-8s-8,3.582-8,8v39.8
				c-99.685-4.277-179.523-84.115-183.8-183.8h39.8c4.418,0,8-3.582,8-8s-3.582-8-8-8H48.479
				c1.817-47.961,21.617-93.483,55.464-127.512c0.128-0.112,0.288-0.152,0.408-0.272s0.16-0.28,0.272-0.408
				c34.022-33.858,79.547-53.66,127.512-55.464v39.656c0,4.418,3.582,8,8,8s8-3.582,8-8V48.382
				c47.965,1.803,93.491,21.605,127.512,55.464c0.112,0.128,0.152,0.288,0.272,0.408s0.28,0.16,0.408,0.272
				C410.173,138.556,429.973,184.077,431.791,232.038z M452.983,105.574l-78.4-78.4c24.742-18.557,59.843-13.542,78.4,11.2
				C467.916,58.286,467.916,85.663,452.983,105.574z" />
					<path d="M353.903,165.11h0.016l-90.992,52.528c-12.287-12.592-32.456-12.839-45.048-0.552c-0.186,0.182-0.37,0.366-0.552,0.552
				l-49.416-28.528c-3.812-2.234-8.713-0.956-10.947,2.856c-2.234,3.812-0.956,8.713,2.856,10.947
				c0.03,0.018,0.061,0.035,0.092,0.053l49.496,28.576c-4.964,16.962,4.763,34.736,21.725,39.699
				c16.962,4.964,34.736-4.763,39.699-21.725c1.717-5.869,1.717-12.106,0-17.975l91.072-52.576c3.812-2.234,5.09-7.136,2.856-10.947
				C362.545,164.243,357.708,162.947,353.903,165.11z M240.135,256.038c-8.837,0-16-7.163-16-16s7.163-16,16-16s16,7.163,16,16
				S248.971,256.038,240.135,256.038z" />
				</g>
			</g>
		</g>
		<g>
		</g>
		<g>
		</g>
		<g>
		</g>
		<g>
		</g>
		<g>
		</g>
		<g>
		</g>
		<g>
		</g>
		<g>
		</g>
		<g>
		</g>
		<g>
		</g>
		<g>
		</g>
		<g>
		</g>
		<g>
		</g>
		<g>
		</g>
		<g>
		</g>
	</svg>


	<svg id="alarm" viewBox="0 0 13 13" version="1.1" xmlns="http://www.w3.org/2000/svg"
		xmlns:xlink="http://www.w3.org/1999/xlink">
		<!-- Generator: Sketch 63.1 (92452) - https://sketch.com -->
		<title>Icon</title>
		<desc>Created with Sketch.</desc>
		<g id="UI-Mockups" stroke="none" stroke-width="1" fill="none" fill-rule="evenodd">
			<g id="V4.1-Note" transform="translate(-294.000000, -750.000000)">
				<g id="Table" transform="translate(272.500000, 684.000000)">
					<g id="Icon-/-icon-alarm" transform="translate(20.500000, 65.000000)">
						<polygon id="Shape" points="0 0 15 0 15 15 0 15"></polygon>
						<path
							d="M13.75,3.575 L10.875,1.1625 L10.06875,2.11875 L12.94375,4.53125 L13.75,3.575 Z M4.925,2.11875 L4.125,1.1625 L1.25,3.56875 L2.05625,4.525 L4.925,2.11875 Z M7.8125,5 L6.875,5 L6.875,8.75 L9.84375,10.53125 L10.3125,9.7625 L7.8125,8.28125 L7.8125,5 Z M7.5,2.5 C4.39375,2.5 1.875,5.01875 1.875,8.125 C1.875,11.23125 4.3875,13.75 7.5,13.75 C10.60625,13.75 13.125,11.23125 13.125,8.125 C13.125,5.01875 10.60625,2.5 7.5,2.5 Z M7.5,12.5 C5.08125,12.5 3.125,10.54375 3.125,8.125 C3.125,5.70625 5.08125,3.75 7.5,3.75 C9.91875,3.75 11.875,5.70625 11.875,8.125 C11.875,10.54375 9.91875,12.5 7.5,12.5 Z"
							id="Shape" fill="#484A6E" fill-rule="evenodd"></path>
					</g>
				</g>
			</g>
		</g>
	</svg>
	<svg width="20px" height="20px" viewBox="0 0 20 20" version="1.1" xmlns="http://www.w3.org/2000/svg"
		xmlns:xlink="http://www.w3.org/1999/xlink" id="dark-settings">
		<!-- Generator: Sketch 63.1 (92452) - https://sketch.com -->
		<title>Shape</title>
		<desc>Created with Sketch.</desc>
		<g id="Symbols" stroke="none" stroke-width="1" fill="none" fill-rule="evenodd">
			<g id="Icon-/-icon-settings" transform="translate(-2.000000, -2.000000)" fill="#2C3E65">
				<path
					d="M19.43,12.98 C19.47,12.66 19.5,12.34 19.5,12 C19.5,11.66 19.47,11.34 19.43,11.02 L21.54,9.37 C21.73,9.22 21.78,8.95 21.66,8.73 L19.66,5.27 C19.54,5.05 19.27,4.97 19.05,5.05 L16.56,6.05 C16.04,5.65 15.48,5.32 14.87,5.07 L14.49,2.42 C14.46,2.18 14.25,2 14,2 L10,2 C9.75,2 9.54,2.18 9.51,2.42 L9.13,5.07 C8.52,5.32 7.96,5.66 7.44,6.05 L4.95,5.05 C4.72,4.96 4.46,5.05 4.34,5.27 L2.34,8.73 C2.21,8.95 2.27,9.22 2.46,9.37 L4.57,11.02 C4.53,11.34 4.5,11.67 4.5,12 C4.5,12.33 4.53,12.66 4.57,12.98 L2.46,14.63 C2.27,14.78 2.22,15.05 2.34,15.27 L4.34,18.73 C4.46,18.95 4.73,19.03 4.95,18.95 L7.44,17.95 C7.96,18.35 8.52,18.68 9.13,18.93 L9.51,21.58 C9.54,21.82 9.75,22 10,22 L14,22 C14.25,22 14.46,21.82 14.49,21.58 L14.87,18.93 C15.48,18.68 16.04,18.34 16.56,17.95 L19.05,18.95 C19.28,19.04 19.54,18.95 19.66,18.73 L21.66,15.27 C21.78,15.05 21.73,14.78 21.54,14.63 L19.43,12.98 L19.43,12.98 Z M12,15.5 C10.07,15.5 8.5,13.93 8.5,12 C8.5,10.07 10.07,8.5 12,8.5 C13.93,8.5 15.5,10.07 15.5,12 C15.5,13.93 13.93,15.5 12,15.5 Z"
					id="Shape"></path>
			</g>
		</g>
	</svg>

	<svg xmlns="http://www.w3.org/2000/svg" id="checkmark" height="24" viewBox="0 0 24 24" width="24">
		<path d="M0 0h24v24H0z" fill="none" />
		<path d="M9 16.2L4.8 12l-1.4 1.4L9 19 21 7l-1.4-1.4L9 16.2z" /></svg>
	<svg id="sms" viewBox="0 0 18 17" version="1.1" xmlns="http://www.w3.org/2000/svg"
		xmlns:xlink="http://www.w3.org/1999/xlink">
		<!-- Generator: Sketch 63.1 (92452) - https://sketch.com -->
		<title>Shape</title>
		<desc>Created with Sketch.</desc>
		<g id="UI-Mockups" stroke="none" stroke-width="1" fill="none" fill-rule="evenodd">
			<g id="V4.1-Email" transform="translate(-206.000000, -504.000000)" fill="#484A6E">
				<g id="Group-18" transform="translate(34.000000, 92.000000)">
					<g id="Group-16">
						<g id="Components-/-Button-/-Icon-/-S-/-Secondary"
							transform="translate(172.000000, 412.000000)">
							<g id="Icon">
								<path
									d="M4.86086979,14.6504894 L15.7182878,14.6504894 C16.5679967,14.6504894 17.2554884,13.843846 17.2554884,12.8579486 L17.2632131,2.10270409 C17.2632131,1.11680667 16.5679967,0.310163328 15.7182878,0.310163328 L3.35888565,0.310163328 C2.50917675,0.310163328 1.81396038,1.1345369 1.81396038,2.10270409 L1.81396038,11.3645787 C1.81396038,12.3504762 -0.361899095,15.2063792 0.441109812,16.0723765 C1.24411872,16.9383739 4.86086979,14.6504894 4.86086979,14.6504894 Z M5.76321306,8.31016333 C6.59164019,8.31016333 7.26321306,7.63859045 7.26321306,6.81016333 C7.26321306,5.9817362 6.59164019,5.31016333 5.76321306,5.31016333 C4.93478594,5.31016333 4.26321306,5.9817362 4.26321306,6.81016333 C4.26321306,7.63859045 4.93478594,8.31016333 5.76321306,8.31016333 Z M9.76321306,8.31016333 C10.5916402,8.31016333 11.2632131,7.63859045 11.2632131,6.81016333 C11.2632131,5.9817362 10.5916402,5.31016333 9.76321306,5.31016333 C8.93478594,5.31016333 8.26321306,5.9817362 8.26321306,6.81016333 C8.26321306,7.63859045 8.93478594,8.31016333 9.76321306,8.31016333 Z M13.7632131,8.31016333 C14.5916402,8.31016333 15.2632131,7.63859045 15.2632131,6.81016333 C15.2632131,5.9817362 14.5916402,5.31016333 13.7632131,5.31016333 C12.9347859,5.31016333 12.2632131,5.9817362 12.2632131,6.81016333 C12.2632131,7.63859045 12.9347859,8.31016333 13.7632131,8.31016333 Z"
									id="Shape"></path>
							</g>
						</g>
					</g>
				</g>
			</g>
		</g>
	</svg>

	<svg xmlns="http://www.w3.org/2000/svg" id="caret" viewBox="0 0 24 24">
		<path d="M0 0h24v24H0V0z" fill="none" />
		<path d="M8.59 16.59L13.17 12 8.59 7.41 10 6l6 6-6 6-1.41-1.41z" /></svg>