<?xml version="1.0" encoding="utf-8"?>
<!-- Generator: Adobe Illustrator 25.1.0, SVG Export Plug-In . SVG Version: 6.00 Build 0)  -->
<svg version="1.1" id="Layer_1" xmlns="http://www.w3.org/2000/svg" xmlns:xlink="http://www.w3.org/1999/xlink" x="0px" y="0px"
	 viewBox="0 0 120 47.5" style="enable-background:new 0 0 120 47.5;" xml:space="preserve">
<style type="text/css">
	.st0{fill:#4A8CFF;}
	.st1{fill:#FFFFFF;}
	.st2{clip-path:url(#SVGID_2_);}
	.st3{fill:#E5E5E4;}
	.st4{clip-path:url(#SVGID_4_);}
	.st5{clip-path:url(#SVGID_6_);}
	.st6{clip-path:url(#SVGID_8_);}
</style>
<path class="st0" d="M70.3,16L70.3,16c-4.3,0-7.8,3.5-7.8,7.8c0,4.3,3.5,7.8,7.8,7.8s7.8-3.5,7.8-7.8S74.7,16,70.3,16z M73.7,27.1
	c-1.8,1.8-4.8,1.8-6.7,0c-1.8-1.8-1.8-4.8,0-6.6c1.8-1.8,4.8-1.8,6.7,0l0,0C75.5,22.3,75.5,25.3,73.7,27.1z"/>
<path class="st0" d="M60.9,28.6l-0.8,0h-7.1l9.4-9.4l0-0.8c0-1.3-1-2.3-2.3-2.3l-0.8,0H47.6l0,0.8c0.1,1.2,1.1,2.3,2.3,2.3l0.8,0
	h7.1l-9.4,9.4l0,0.8c0,1.3,1.1,2.3,2.3,2.3l0.8,0h11.8l0-0.8C63.1,29.6,62.2,28.6,60.9,28.6z"/>
<path class="st1" d="M73.7,20.5c-1.8-1.8-4.8-1.8-6.7,0c-1.8,1.8-1.8,4.8,0,6.6c1.8,1.8,4.8,1.8,6.7,0
	C75.5,25.3,75.5,22.3,73.7,20.5C73.7,20.5,73.7,20.5,73.7,20.5z"/>
<path class="st0" d="M111.1,16c-1.8,0-3.5,0.8-4.7,2.1c-2.1-2.4-5.6-2.8-8.2-1c-0.6-0.7-2-1.1-2.8-1.1v15.7l0.8,0
	c1.3-0.1,2.3-1,2.3-2.3l0-0.8V23l0-0.8c0-0.5,0.1-1.1,0.4-1.6c0.9-1.5,2.8-2,4.3-1.1c0.5,0.3,0.9,0.7,1.1,1.1h0
	c0.3,0.5,0.4,1,0.4,1.6l0,0.8v5.5l0,0.8c0,1.3,1,2.3,2.3,2.3l0.8,0V23l0-0.8c0-0.6,0.1-1.1,0.4-1.6c0.9-1.5,2.8-2,4.3-1.1
	c0.5,0.3,0.9,0.7,1.1,1.1c0.2,0.5,0.4,1,0.4,1.6l0,0.8v5.5l0,0.8c0,1.3,1,2.3,2.3,2.3l0.8,0v-9.4C117.4,18.8,114.6,16,111.1,16z"/>
<path class="st0" d="M92.3,18.3c-1.5-1.5-3.5-2.3-5.5-2.3c-2.1,0-4.1,0.8-5.5,2.3c-3.1,3.1-3.1,8,0,11.1c3.1,3.1,8,3.1,11.1,0
	C95.4,26.3,95.4,21.3,92.3,18.3L92.3,18.3z M90.1,27.1c-1.8,1.8-4.8,1.8-6.7,0c-1.8-1.8-1.8-4.8,0-6.6c1.8-1.8,4.8-1.8,6.7,0l0,0
	C92,22.3,92,25.3,90.1,27.1z"/>
<path class="st1" d="M90.1,20.5c-1.8-1.8-4.8-1.8-6.7,0c-1.8,1.8-1.8,4.8,0,6.6c1.8,1.8,4.8,1.8,6.7,0C92,25.3,92,22.3,90.1,20.5
	C90.1,20.5,90.1,20.5,90.1,20.5z"/>
<g>
	<g>
		<defs>
			<circle id="SVGID_1_" cx="22.1" cy="23.8" r="20"/>
		</defs>
		<clipPath id="SVGID_2_">
			<use xlink:href="#SVGID_1_"  style="overflow:visible;"/>
		</clipPath>
		<g class="st2">
			<path class="st3" d="M1.2,2.9h41.9v41.9H1.2V2.9z"/>
		</g>
	</g>
</g>
<g>
	<g>
		<defs>
			<circle id="SVGID_3_" cx="22.1" cy="23.8" r="19.6"/>
		</defs>
		<clipPath id="SVGID_4_">
			<use xlink:href="#SVGID_3_"  style="overflow:visible;"/>
		</clipPath>
		<g class="st4">
			<path class="st1" d="M1.5,3.2h41.2v41.2H1.5V3.2z"/>
		</g>
	</g>
</g>
<g>
	<g>
		<defs>
			<circle id="SVGID_5_" cx="22.1" cy="23.8" r="18"/>
		</defs>
		<clipPath id="SVGID_6_">
			<use xlink:href="#SVGID_5_"  style="overflow:visible;"/>
		</clipPath>
		<g class="st5">
			<path class="st0" d="M3.1,4.8h38v38h-38V4.8z"/>
		</g>
	</g>
</g>
<g>
	<g>
		<defs>
			<path id="SVGID_7_" d="M27.6,21.5l5.1-3.7c0.4-0.4,0.8-0.3,0.8,0.4v11.4c0,0.8-0.4,0.7-0.8,0.4l-5.1-3.7V21.5z M10.4,18.2v8.5
				c0,1.9,1.6,3.5,3.5,3.5h12.4c0.3,0,0.6-0.3,0.6-0.6V21c0-1.9-1.6-3.5-3.5-3.5H11C10.7,17.6,10.4,17.8,10.4,18.2z"/>
		</defs>
		<clipPath id="SVGID_8_">
			<use xlink:href="#SVGID_7_"  style="overflow:visible;"/>
		</clipPath>
		<g class="st6">
			<path class="st1" d="M9.4,16.6h25.1v14.5H9.4V16.6z"/>
		</g>
	</g>
</g>
</svg>
